<?xml version="1.0" standalone="yes"?>
<svg xmlns="http://www.w3.org/2000/svg" width="192" height="186">
<path style="fill:#9fb13e; stroke:none;" d="M75 31.4429C55.8517 34.2231 39.8596 50.3783 35.6651 69C33.2803 79.5875 34.5468 90.3098 33.2855 101C32.0541 111.436 31.8584 139.341 49 136.756C56.2797 135.659 62.8206 126.84 68 122.17C74.7155 116.115 85.8446 110.242 89.9722 102C94.2607 93.4369 91 76.5086 91 67C91 53.8776 95.8794 28.4114 75 31.4429M114 31.4722C100.563 33.9167 103.017 53.3022 103 64C102.983 74.3286 99.4769 92.7037 104.179 101.996C108.469 110.475 120.866 117.316 128 123.428C133.76 128.363 140.254 138.469 148.999 136.601C163.667 133.468 161 112.88 161 102C161 76.476 158.877 48.7886 133 35.8102C127.477 33.0404 120.248 30.3356 114 31.4722M95 115.653C84.3664 118.431 73.2229 130.105 66.1049 138C62.7871 141.68 59.995 146.049 62.4606 150.985C70.2309 166.541 99.9676 166.005 114 162.243C121.141 160.329 134.759 154.6 132.304 145C130.584 138.275 122.701 132.679 118 128.001C112.469 122.497 103.786 113.357 95 115.653z"/>
</svg>
