<?xml version="1.0" standalone="yes"?>
<svg xmlns="http://www.w3.org/2000/svg" width="199" height="188">
<path style="fill:#5b5390; stroke:none;" d="M44 22C45.7382 26.5058 48.7809 32.0325 47.5517 37C45.9998 43.2716 38.7241 47.6185 34 51.3997C24.706 58.8387 15.1186 67.3053 14.0934 80C13.6995 84.8767 13.7169 90.1881 14.6188 95C19.9963 123.69 53.5901 115.699 69.9066 133.015C80.5404 144.3 75.85 161.292 89 171C89 161.401 92.4459 143.595 87.9722 135.039C80.7065 121.144 64.4453 114.705 59.9275 98C56.4111 84.9978 66.2679 80.0089 68.5872 69.0895C72.3848 51.21 59.7836 29.5102 44 22M149 22C134.32 32.5549 121.951 49.7258 126.303 69C128.736 79.773 137.548 85.4795 134.236 98C129.949 114.207 114.43 120.775 107.028 134.17C102.808 141.807 105.277 161.334 106 170C118.559 160.675 113.981 144.129 124.185 133.04C140.944 114.828 178.486 123.489 179.961 91C180.165 86.4875 180.453 81.4599 179.671 77C176.438 58.5615 156.496 54.2283 148.009 39.9992C143.925 33.1511 150.084 28.4749 149 22M79 28C79.4764 34.0275 81.2068 39.9149 80.9599 46C80.7568 51.0057 78.4245 55.959 79.152 60.9992C79.5971 64.083 81.6966 67.3733 84.9892 67.9792C90.928 69.072 92.7317 60.1605 92.4853 56C91.8513 45.2929 87.9473 34.4398 79 28M116 28C106.533 32.5107 102.106 45.0794 102.004 55C101.959 59.381 102.782 69.9861 109.982 67.5926C113.132 66.5454 115.033 63.1389 115.228 60C115.938 48.5219 112.675 39.8309 116 28z"/>
</svg>
