<?xml version="1.0" standalone="yes"?>
<svg xmlns="http://www.w3.org/2000/svg" width="185" height="178">
<path style="fill:#e494a2; stroke:none;" d="M68 98C67.5243 87.5905 61.824 77.8975 56.8603 69C51.0611 58.6046 46.0428 48.6578 43.3488 37C42.5553 33.5667 41.8172 26.9438 37.7863 25.7122C33.3242 24.3489 29.914 29.7133 28.3272 33.0008C23.6258 42.741 23.7554 53.4437 24.0147 64C24.6742 90.8502 44.9702 98 68 98M117 98C142.436 98 160.72 89.3849 161.961 61C162.368 51.6795 161.195 40.2919 156.583 32.0039C154.996 29.1503 151.264 24.4285 147.394 25.7122C143.675 26.9454 142.929 33.8065 142.127 37C139.231 48.5219 134.18 58.5716 128.54 69C123.686 77.975 117.904 87.6412 117 98M89.0008 98.5586C71.9712 102.965 78.7751 129.57 96 125.466C113.705 121.247 106.597 94.006 89.0008 98.5586M24 126C29.0645 137.587 44.2765 157.752 59 155.041C67.863 153.409 81.3167 137.375 70.7716 129.619C65.9936 126.104 59.1365 132.49 54 132.905C43.7366 133.734 33.5257 129.105 24 126M160 126C151.718 129.873 141.294 133.558 132 132.903C126.887 132.542 121.052 127.022 116.105 128.786C105.202 132.676 114.36 148.395 120.004 152.348C132.513 161.109 145.033 147.958 152.7 139C155.616 135.593 160.643 130.693 160 126z"/>
</svg>
