<?xml version="1.0" standalone="yes"?>
<svg xmlns="http://www.w3.org/2000/svg" width="515" height="485">
<path style="fill:#ad312b; stroke:none;" d="M165 89C152.668 89 140.333 88.9211 128.001 89.0008C124.054 89.0263 115.519 89.6676 112.603 92.6034C109.715 95.5117 112.08 99.6223 112.17 103C112.349 109.75 111.561 115.114 112.675 122C116.164 143.564 113 168.142 113 190C113 195.657 110.427 209.85 114.028 214.397C117.398 218.652 133.902 216 139 216C144.657 216 158.85 218.573 163.397 214.972C166.829 212.254 165 201.938 165 198L165 147L165 89M194 215L233 216L246.397 214.972L248 206L248 183L248 89L210 89C206.269 89 198.698 87.5766 195.603 90.0278C190.773 93.8531 194 115.059 194 121L194 215M277 89L277 175L278 216L314 216L327.397 214.821L329 206L329 183L329 89L277 89M361 89L361 181C361 188.348 357.434 208.596 362.028 214.397C364.025 216.918 369.197 216 372 216L401 216C404.405 215.999 410.394 216.974 411.682 212.772C415.035 201.834 412 185.459 412 174L412 89L361 89M113 240L113 420L197 420L197 313C221.149 313 248.252 316.409 272 312L272 240L113 240M296 240C296 263.473 294 286.439 294 310C294 315.768 296.694 331.099 292.397 335.397C288.888 338.905 278.59 337 274 337L221 337L221 420L412 420L412 240L296 240z"/>
</svg>
