<?xml version="1.0" standalone="yes"?>
<svg xmlns="http://www.w3.org/2000/svg" width="194" height="186">
<path style="fill:#e17937; stroke:none;" d="M36 111C29.1063 107.776 24.6166 100.49 21 94L20 94C20 124.33 34.4224 153.788 65 165C57.4334 153.511 49.1738 139.834 56.966 126C60.2787 120.119 68.1066 115.592 69.6782 109C71.6313 100.808 66.3809 91.7523 68 83L69 83C71.9469 91.0369 78.0537 98.1064 85 103L92 77C99.3074 84.2303 97.576 94.924 101 104C107.73 99.0469 114.03 90.8352 117 83L118 83C119.252 93.1303 113.521 102.397 114.654 112C115.452 118.774 122.398 123.52 124.532 130C130.44 147.947 118.608 163.345 104 172L104 173C117.116 170.456 130.947 167.127 142 159.211C158.577 147.339 168.107 122.661 171 103L152 109C167.103 89.1894 156.465 61.7712 144 43C140.246 52.8034 137.537 61.282 130 69C129.425 64.7534 128.372 60.6565 126.03 57C120.062 47.683 93.3216 28.7258 116.998 22.8997C119.335 22.3248 121.607 22.1044 124 22C109.793 10.2726 88.0776 16.2378 75 26.2361C47.3897 47.3451 38.5885 78.2002 36 111M84 121.518C51.8407 128.389 63.1172 175.767 95 169.66C125.852 163.75 114.385 115.025 84 121.518z"/>
</svg>
