<?xml version="1.0" standalone="yes"?>
<svg xmlns="http://www.w3.org/2000/svg" width="185" height="175">
<path style="fill:#968ab4; stroke:none;" d="M50 109L50 110L24 107C25.561 120.977 51.9426 131.143 64 134L64 135C58.2842 135.499 39.807 141.965 52.0193 148.081C61.3978 152.778 70.7177 149.445 80 151.84C85.4282 153.24 88.7409 157.782 93 161C93 123.764 79.5421 83.1508 63.2438 50C59.1976 41.77 49.1959 17.4221 37.0401 20.696C28.1136 23.1002 28.0028 37.744 28 45C27.9924 64.7695 28.6418 99.0124 50 109M94 161L95 161C105.039 146.876 121.039 154.937 134.941 147.812C146.323 141.979 126.948 135.432 122 135L122 134C135.196 130.946 158.298 121.822 163 108C154.557 104.461 145.466 108.059 137 110C154.092 92.8609 161.118 68.0386 158.83 44C158.161 36.9711 157.627 19.5843 146.999 20.3372C135.244 21.17 127.188 42.1078 122.753 51C106.219 84.1541 94 123.819 94 161M51 110L50 111L51 110z"/>
</svg>
