<?xml version="1.0" standalone="yes"?>
<svg xmlns="http://www.w3.org/2000/svg" width="182" height="176">
<path style="fill:#655285; stroke:none;" d="M110 166C107.429 164.372 104.438 163.487 102.019 161.581C95.8905 156.75 96.7282 151.132 103.005 146.966C111.963 141.02 127.123 140.477 133.396 130.96C139.634 121.496 121.781 115.994 125.831 108.185C129.019 102.038 140.804 98.6652 145.96 93.8264C160.459 80.2184 161.385 56.4618 149.471 41C129.114 14.5824 85.7911 10.2487 57 23.7816C41.1212 31.2453 27.3486 44.6133 26.0895 63C24.8584 80.9776 33.7196 98.9184 49 108.535C55.255 112.472 72.1722 116.798 74.8241 124.043C77.8333 132.264 59.171 135.847 57.4738 143.04C55.8378 149.973 62.5665 156.155 68 159.015C80.5518 165.621 96.1592 166 110 166z"/>
</svg>
