<?xml version="1.0" standalone="yes"?>
<svg xmlns="http://www.w3.org/2000/svg" width="200" height="193">
<path style="fill:#73ba54; stroke:none;" d="M99 11C68.7668 41.2332 27.6517 73.4117 39.4753 121C41.2336 128.077 43.6609 134.66 47.2878 141C52.9377 150.876 60.7031 158.048 71 162.88C75.3256 164.911 85.2805 165.459 87.9715 169.433C90.1679 172.677 88.1565 178.356 88 182L111 182L109 168C144.644 160.643 171.618 121.645 159.971 85C153.254 63.8641 135.27 46.2699 120 31C113.263 24.263 106.799 16.4937 99 11M100 45L106 83L138 68C124.551 87.1672 106 97.4971 106 123C119.885 119.788 130.789 111.798 143 105C128.666 125.349 106.066 132.782 100 159L99 159C92.9262 132.746 70.3291 125.342 56 105C68.2109 111.798 79.1151 119.788 93 123C93 97.3549 74.5836 87.3016 61 68L93 83L100 45z"/>
</svg>
