<?xml version="1.0" standalone="yes"?>
<svg xmlns="http://www.w3.org/2000/svg" width="184" height="165">
<path style="fill:#d5ba68; stroke:none;" d="M55 70L80 86.6667L92 93.162L104 86.6559L129 70L101.873 32L91.9969 21.2068L82 32L55 70M15 123L169 123C163.688 112.333 154.761 102.554 147.626 93C145.49 90.1397 142.237 83.6031 137.961 84.1605C127.634 85.5065 112.904 98.8793 104 104.425C100.563 106.566 96.2701 110.702 92 110.702C87.8335 110.702 83.3771 106.68 80 104.576C70.95 98.9399 56.6352 85.5451 46.0394 84.1605C41.7585 83.6011 38.5165 90.1428 36.3735 93C29.3553 102.357 19.5554 112.224 15 123z"/>
</svg>
