<?xml version="1.0" standalone="yes"?>
<svg xmlns="http://www.w3.org/2000/svg" width="194" height="181">
<path style="fill:#98d1cb; stroke:none;" d="M96 3L90.3966 16.787L75 26.7191L38 47.6543L21 47L30.3966 60.0934L31 77L30.6821 120.895L21 135C26.2714 135.413 32.3686 132.69 37 133.504C42.2026 134.418 48.4669 139.502 53 142.201C63.9796 148.736 82.1016 154.839 90.3966 164.61C93.1796 167.888 93.5028 174.03 96 178L106.059 162.75L139 143.716L157 133.588L173 135L164.318 120.896L164 100L164.148 61.0432L173 46L157 47.7932L140 38.7191L105.148 18.0957L96 3M92 37C92 40.5241 92.8745 45.5336 90.9722 48.6713C84.2594 59.7437 64.2958 66.2945 54 60L54 58L92 37M141 58L141 60C138.086 61.7813 134.582 64.5897 131 64.5008C124.753 64.3457 106.372 53.8762 103.028 48.6103C101.091 45.561 102 40.4592 102 37L141 58M92 60L92 81L73 71L92 60M122 71L102 81L102 60L122 71M47 113L48 68C50.9867 69.2871 55.0771 70.7898 56.9722 73.6096C59.1881 76.9066 58 83.2104 58 87C58 98.9783 60.6684 109.062 47 113M147 68L147 113C133.861 108.217 136 99.0589 136 87C136 83.2977 134.977 77.6595 137.028 74.3789C139.027 71.1797 143.69 69.4263 147 68M87 91L67 102L67 80L87 91M127 80L127 101L108 91L127 80M92 100L92 122L73 112L73 110L92 100M122 110L102 122L102 100L122 110M93 145L53 123C62.2416 112.997 83.9616 122.18 90.9722 132.61C93.0513 135.703 92.132 141.354 93 145M142 122C131.853 131.502 114.821 139.662 102 145C102 141.412 101.148 136.428 103.028 133.21C106.111 127.932 125.872 116.271 132 116.924C135.517 117.298 139.062 120.202 142 122z"/>
</svg>
