<?xml version="1.0" standalone="yes"?>
<svg xmlns="http://www.w3.org/2000/svg" width="186" height="181">
<path style="fill:#8e4187; stroke:none;" d="M88 15.7099C44.6705 16.3005 26.018 74.9573 64 98.5324C72.8502 104.026 81.7934 105.239 92 104.985C148.049 103.591 143.937 14.9474 88 15.7099M75 39.3333C95.3417 35.9104 100.602 67.4752 80 70.6559C60.2606 73.7033 55.1028 42.6815 75 39.3333M61 115.711C25.2342 116.315 28.2741 169.907 64 168.985C97.9253 168.111 94.7849 115.139 61 115.711M125 132.569C105.893 136.117 111.57 165.064 131 160.606C148.531 156.583 142.165 129.381 125 132.569z"/>
</svg>
