<?xml version="1.0" standalone="yes"?>
<svg xmlns="http://www.w3.org/2000/svg" width="194" height="177">
<path style="fill:#dd527c; stroke:none;" d="M84 28.439C59.3438 32.282 41.9451 46.4847 27.1304 66C23.2938 71.0539 14.8419 79.322 14.784 86C14.7085 94.6875 25.6033 105.872 30.8696 112C52.2025 136.822 78.8261 151.267 112 145.715C135.253 141.823 154.31 125.767 168.739 108C173.118 102.608 181.385 93.4252 181.227 86C181.071 78.6759 171.623 68.6025 167.346 63C147.751 37.3339 116.428 23.3847 84 28.439M138 57C145.431 62.3425 164.155 74.9912 164.981 85C165.284 88.6624 161.3 92.396 159.195 95C152.167 103.696 143.772 112.432 134 118C140.937 105.54 148.029 93.9657 145.385 79C144.096 71.7047 138.203 63.8545 138 57M53 60C46.7188 81.8119 44.658 95.4979 57 116C48.4915 110.678 42.2625 102.9 36.2361 95C34.1936 92.3223 30.7776 88.6489 31.2623 85C32.431 76.203 46.255 64.7513 53 60M92 68.3295C114.689 64.2343 123.05 98.5177 100 102.671C77.5689 106.712 69.4559 72.3985 92 68.3295z"/>
</svg>
