<?xml version="1.0" standalone="yes"?>
<svg xmlns="http://www.w3.org/2000/svg" width="186" height="174">
<path style="fill:#ad9b41; stroke:none;" d="M65 24C65.9535 29.3658 70.1637 43.91 75.3935 46.3966C81.2634 49.1875 92.5504 47 99 47C103.506 47 111.676 48.5546 115.582 45.9722C120.683 42.5993 124.074 29.6576 126 24L65 24M74.0903 55.0278C65.0499 59.9055 57.092 75.8592 50.8843 84C48.672 86.9012 44.3993 91.0022 45.0062 95C45.8826 100.773 53.204 107.437 56.6265 112C61.5797 118.604 66.6275 128.482 73.3002 133.397C76.2935 135.601 80.4961 135 84 135C92.6042 135.001 108.269 138.014 115.96 133.972C125.255 129.087 133.411 112.33 139.765 104C141.979 101.098 146.009 96.9825 145.292 93C144.273 87.3396 137.505 81.4558 134.13 77C129.256 70.5657 123.468 59.2372 116.536 55.0278C113.638 53.2679 109.24 54 106 54C97.4969 54 81.6478 50.9501 74.0903 55.0278M15 106L39.4244 141L52 155C55.1386 149.679 62.5223 141.353 62.4468 135C62.3498 126.846 49.7993 115.345 45.1512 109C43.2442 106.397 41.3053 102.697 37.9599 101.777C31.7878 100.08 21.2492 104.788 15 106M139 156L140 156C150.823 140.932 169.156 123.625 175 106C169.023 104.767 158.023 99.7584 152.174 101.694C144.585 104.204 136.506 120.62 132.001 127C130.171 129.591 127.419 132.58 127.927 136C128.893 142.501 135.668 150.35 139 156z"/>
</svg>
