<?xml version="1.0" standalone="yes"?>
<svg xmlns="http://www.w3.org/2000/svg" width="191" height="172">
<path style="fill:#b1b2c3; stroke:none;" d="M16 95L16 96C27.4748 107.475 39.0024 118.906 50.2793 130.576C55.242 135.711 60.8432 143.472 68 145.431C78.8729 148.408 89.007 137.656 84.8519 127C80.6499 116.223 64.3279 102.571 55 96L55 95L84 67L96 57.0556L108 67L137 95C130.971 101.029 125.23 107.375 118.985 113.17C114.529 117.305 109.113 121.956 107.344 128C104.401 138.058 112.692 147.477 123 145.67C129.39 144.549 133.641 139.357 138 135L163 110C166.373 106.627 173.458 101.798 174.654 97C176.079 91.2847 162.636 81.6364 159 78L112 31C108.624 27.6236 100.395 16.0007 95 17.3457C87.1765 19.296 77.6274 33.3726 72 39L16 95z"/>
</svg>
