<svg version="1.1" viewBox="0.0 0.0 960.0 720.0" fill="none" stroke="none" stroke-linecap="square" stroke-miterlimit="10" xmlns:xlink="http://www.w3.org/1999/xlink" xmlns="http://www.w3.org/2000/svg"><clipPath id="p.0"><path d="m0 0l960.0 0l0 720.0l-960.0 0l0 -720.0z" clip-rule="nonzero"/></clipPath><g clip-path="url(#p.0)"><path fill="#000000" fill-opacity="0.0" d="m0 0l960.0 0l0 720.0l-960.0 0z" fill-rule="evenodd"/><path fill="#ff0000" d="m223.19948 359.99475l0 0c0 -140.15971 114.96278 -253.7846 256.78363 -253.79527c141.8208 -0.010665894 256.8011 113.59694 256.8227 253.75664l-196.39185 0.029541016c-0.0053100586 -31.701233 -27.05371 -57.39682 -60.416107 -57.394318c-33.362366 0.0025024414 -60.406494 25.702148 -60.406494 57.40341z" fill-rule="evenodd"/><path stroke="#000000" stroke-width="24.0" stroke-linejoin="round" stroke-linecap="butt" d="m223.19948 359.99475l0 0c0 -140.15971 114.96278 -253.7846 256.78363 -253.79527c141.8208 -0.010665894 256.8011 113.59694 256.8227 253.75664l-196.39185 0.029541016c-0.0053100586 -31.701233 -27.05371 -57.39682 -60.416107 -57.394318c-33.362366 0.0025024414 -60.406494 25.702148 -60.406494 57.40341z" fill-rule="evenodd"/><path fill="#ffffff" d="m736.80054 360.00525l0 0c0 140.15973 -114.96277 253.7846 -256.78363 253.79529c-141.82083 0.010681152 -256.8011 -113.596954 -256.8227 -253.75665l196.39186 -0.029541016c0.005279541 31.701233 27.05371 57.39682 60.416077 57.394318c33.362335 -0.0025024414 60.406525 -25.702148 60.406525 -57.40341z" fill-rule="evenodd"/><path stroke="#000000" stroke-width="24.0" stroke-linejoin="round" stroke-linecap="butt" d="m736.80054 360.00525l0 0c0 140.15973 -114.96277 253.7846 -256.78363 253.79529c-141.82083 0.010681152 -256.8011 -113.596954 -256.8227 -253.75665l196.39186 -0.029541016c0.005279541 31.701233 27.05371 57.39682 60.416077 57.394318c33.362335 -0.0025024414 60.406525 -25.702148 60.406525 -57.40341z" fill-rule="evenodd"/></g></svg>